<svg xmlns="http://www.w3.org/2000/svg" xmlns:xlink="http://www.w3.org/1999/xlink" version="1.1" class="marks" width="596" height="338" viewBox="0 0 596 338"><rect width="596" height="338" fill="white"/><g fill="none" stroke-miterlimit="10" transform="translate(43,10)"><g class="mark-group role-frame root" role="graphics-object" aria-roledescription="group mark container"><g transform="translate(0,0)"><path class="background" aria-hidden="true" d="M0.5,0.5h480v280h-480Z" stroke="#ddd"/><g><g class="mark-group role-axis" aria-hidden="true"><g transform="translate(0.5,0.5)"><path class="background" aria-hidden="true" d="M0,0h0v0h0Z" pointer-events="none"/><g><g class="mark-rule role-axis-grid" pointer-events="none"><line transform="translate(0,280)" x2="480" y2="0" stroke="#ddd" stroke-width="1" opacity="1"/><line transform="translate(0,224)" x2="480" y2="0" stroke="#ddd" stroke-width="1" opacity="1"/><line transform="translate(0,168)" x2="480" y2="0" stroke="#ddd" stroke-width="1" opacity="1"/><line transform="translate(0,112)" x2="480" y2="0" stroke="#ddd" stroke-width="1" opacity="1"/><line transform="translate(0,56)" x2="480" y2="0" stroke="#ddd" stroke-width="1" opacity="1"/><line transform="translate(0,0)" x2="480" y2="0" stroke="#ddd" stroke-width="1" opacity="1"/></g></g><path class="foreground" aria-hidden="true" d="" pointer-events="none" display="none"/></g></g><g class="mark-group role-axis" role="graphics-symbol" aria-roledescription="axis" aria-label="X-axis titled 'Month' for a discrete scale with 12 values: 1, 2, 3, 4, 5, ending with 12"><g transform="translate(0.5,280.5)"><path class="background" aria-hidden="true" d="M0,0h0v0h0Z" pointer-events="none"/><g><g class="mark-rule role-axis-tick" pointer-events="none"><line transform="translate(20,0)" x2="0" y2="5" stroke="#888" stroke-width="1" opacity="1"/><line transform="translate(60,0)" x2="0" y2="5" stroke="#888" stroke-width="1" opacity="1"/><line transform="translate(100,0)" x2="0" y2="5" stroke="#888" stroke-width="1" opacity="1"/><line transform="translate(140,0)" x2="0" y2="5" stroke="#888" stroke-width="1" opacity="1"/><line transform="translate(180,0)" x2="0" y2="5" stroke="#888" stroke-width="1" opacity="1"/><line transform="translate(220,0)" x2="0" y2="5" stroke="#888" stroke-width="1" opacity="1"/><line transform="translate(260,0)" x2="0" y2="5" stroke="#888" stroke-width="1" opacity="1"/><line transform="translate(300,0)" x2="0" y2="5" stroke="#888" stroke-width="1" opacity="1"/><line transform="translate(340,0)" x2="0" y2="5" stroke="#888" stroke-width="1" opacity="1"/><line transform="translate(380,0)" x2="0" y2="5" stroke="#888" stroke-width="1" opacity="1"/><line transform="translate(420,0)" x2="0" y2="5" stroke="#888" stroke-width="1" opacity="1"/><line transform="translate(460,0)" x2="0" y2="5" stroke="#888" stroke-width="1" opacity="1"/></g><g class="mark-text role-axis-label" pointer-events="none"><text text-anchor="end" transform="translate(20,7) rotate(270) translate(0,3)" font-family="sans-serif" font-size="10px" fill="#000" opacity="1">Jan</text><text text-anchor="end" transform="translate(60,7) rotate(270) translate(0,3)" font-family="sans-serif" font-size="10px" fill="#000" opacity="1">Feb</text><text text-anchor="end" transform="translate(100,7) rotate(270) translate(0,3)" font-family="sans-serif" font-size="10px" fill="#000" opacity="1">Mar</text><text text-anchor="end" transform="translate(140,7) rotate(270) translate(0,3)" font-family="sans-serif" font-size="10px" fill="#000" opacity="1">Apr</text><text text-anchor="end" transform="translate(180,7) rotate(270) translate(0,3)" font-family="sans-serif" font-size="10px" fill="#000" opacity="1">May</text><text text-anchor="end" transform="translate(220,7) rotate(270) translate(0,3)" font-family="sans-serif" font-size="10px" fill="#000" opacity="1">Jun</text><text text-anchor="end" transform="translate(260,7) rotate(270) translate(0,3)" font-family="sans-serif" font-size="10px" fill="#000" opacity="1">Jul</text><text text-anchor="end" transform="translate(300,7) rotate(270) translate(0,3)" font-family="sans-serif" font-size="10px" fill="#000" opacity="1">Aug</text><text text-anchor="end" transform="translate(340,7) rotate(270) translate(0,3)" font-family="sans-serif" font-size="10px" fill="#000" opacity="1">Sep</text><text text-anchor="end" transform="translate(380,7) rotate(270) translate(0,3)" font-family="sans-serif" font-size="10px" fill="#000" opacity="1">Oct</text><text text-anchor="end" transform="translate(420,7) rotate(270) translate(0,3)" font-family="sans-serif" font-size="10px" fill="#000" opacity="1">Nov</text><text text-anchor="end" transform="translate(460,7) rotate(270) translate(0,3)" font-family="sans-serif" font-size="10px" fill="#000" opacity="1">Dec</text></g><g class="mark-rule role-axis-domain" pointer-events="none"><line transform="translate(0,0)" x2="480" y2="0" stroke="#888" stroke-width="1" opacity="1"/></g><g class="mark-text role-axis-title" pointer-events="none"><text text-anchor="middle" transform="translate(240,40.673828125)" font-family="sans-serif" font-size="11px" font-weight="bold" fill="#000" opacity="1">Month</text></g></g><path class="foreground" aria-hidden="true" d="" pointer-events="none" display="none"/></g></g><g class="mark-group role-axis" role="graphics-symbol" aria-roledescription="axis" aria-label="Y-axis titled 'Autocorrelation of temp_max' for a linear scale with values from 0.0 to 1.0"><g transform="translate(0.5,0.5)"><path class="background" aria-hidden="true" d="M0,0h0v0h0Z" pointer-events="none"/><g><g class="mark-rule role-axis-tick" pointer-events="none"><line transform="translate(0,280)" x2="-5" y2="0" stroke="#888" stroke-width="1" opacity="1"/><line transform="translate(0,224)" x2="-5" y2="0" stroke="#888" stroke-width="1" opacity="1"/><line transform="translate(0,168)" x2="-5" y2="0" stroke="#888" stroke-width="1" opacity="1"/><line transform="translate(0,112)" x2="-5" y2="0" stroke="#888" stroke-width="1" opacity="1"/><line transform="translate(0,56)" x2="-5" y2="0" stroke="#888" stroke-width="1" opacity="1"/><line transform="translate(0,0)" x2="-5" y2="0" stroke="#888" stroke-width="1" opacity="1"/></g><g class="mark-text role-axis-label" pointer-events="none"><text text-anchor="end" transform="translate(-7,283)" font-family="sans-serif" font-size="10px" fill="#000" opacity="1">0.0</text><text text-anchor="end" transform="translate(-7,227)" font-family="sans-serif" font-size="10px" fill="#000" opacity="1">0.2</text><text text-anchor="end" transform="translate(-7,171)" font-family="sans-serif" font-size="10px" fill="#000" opacity="1">0.4</text><text text-anchor="end" transform="translate(-7,115)" font-family="sans-serif" font-size="10px" fill="#000" opacity="1">0.6</text><text text-anchor="end" transform="translate(-7,58.999999999999986)" font-family="sans-serif" font-size="10px" fill="#000" opacity="1">0.8</text><text text-anchor="end" transform="translate(-7,3)" font-family="sans-serif" font-size="10px" fill="#000" opacity="1">1.0</text></g><g class="mark-rule role-axis-domain" pointer-events="none"><line transform="translate(0,280)" x2="0" y2="-280" stroke="#888" stroke-width="1" opacity="1"/></g><g class="mark-text role-axis-title" pointer-events="none"><text text-anchor="middle" transform="translate(-26.9033203125,140) rotate(-90) translate(0,-2)" font-family="sans-serif" font-size="11px" font-weight="bold" fill="#000" opacity="1">Autocorrelation of temp_max</text></g></g><path class="foreground" aria-hidden="true" d="" pointer-events="none" display="none"/></g></g><g class="mark-group role-scope layer_0_pathgroup" role="graphics-object" aria-roledescription="group mark container"><g transform="translate(0,0)"><path class="background" aria-hidden="true" d="M0,0h480v280h-480Z"/><g><g class="mark-line role-mark layer_0_marks" role="graphics-object" aria-roledescription="line mark container"><path aria-label="Month: 1; Autocorrelation of temp_max: 0.754702956947; Lag: temp_lag_1d" role="graphics-symbol" aria-roledescription="line mark" d="M20,68.683L60,62.333L100,93.789L140,122.754L180,88.496L220,74.137L260,95.043L300,115.114L340,85.706L380,80.639L420,86.68L460,62.424" stroke="#4c78a8" stroke-width="2"/></g></g><path class="foreground" aria-hidden="true" d="" display="none"/></g><g transform="translate(0,0)"><path class="background" aria-hidden="true" d="M0,0h480v280h-480Z"/><g><g class="mark-line role-mark layer_0_marks" role="graphics-object" aria-roledescription="line mark container"><path aria-label="Month: 1; Autocorrelation of temp_max: 0.433403330964; Lag: temp_lag_3d" role="graphics-symbol" aria-roledescription="line mark" d="M20,158.647L60,136.883L100,177.505L140,283.041L180,262.576L220,170.883L260,202.453L300,288.748L340,223.902L380,138.269L420,198.364L460,157.43" stroke="#f58518" stroke-width="2"/></g></g><path class="foreground" aria-hidden="true" d="" display="none"/></g><g transform="translate(0,0)"><path class="background" aria-hidden="true" d="M0,0h480v280h-480Z"/><g><g class="mark-line role-mark layer_0_marks" role="graphics-object" aria-roledescription="line mark container"><path aria-label="Month: 1; Autocorrelation of temp_max: 0.21532669051; Lag: temp_lag_6d" role="graphics-symbol" aria-roledescription="line mark" d="M20,219.709L60,246.031L100,181.516L140,283.559L180,267.382L220,196.387L260,257.179L300,302.498L340,254.67L380,155.935L420,203.865L460,248.333" stroke="#e45756" stroke-width="2"/></g></g><path class="foreground" aria-hidden="true" d="" display="none"/></g></g><g class="mark-symbol role-mark layer_1_marks" role="graphics-object" aria-roledescription="symbol mark container"><path aria-label="Month: 1; Autocorrelation of temp_max: 0.754702956947; Lag: temp_lag_1d" role="graphics-symbol" aria-roledescription="point" transform="translate(20,68.68317205484284)" d="M2.739,0A2.739,2.739,0,1,1,-2.739,0A2.739,2.739,0,1,1,2.739,0" fill="#4c78a8" stroke-width="2" opacity="1"/><path aria-label="Month: 1; Autocorrelation of temp_max: 0.433403330964; Lag: temp_lag_3d" role="graphics-symbol" aria-roledescription="point" transform="translate(20,158.64706732996822)" d="M2.739,0A2.739,2.739,0,1,1,-2.739,0A2.739,2.739,0,1,1,2.739,0" fill="#f58518" stroke-width="2" opacity="1"/><path aria-label="Month: 1; Autocorrelation of temp_max: 0.21532669051; Lag: temp_lag_6d" role="graphics-symbol" aria-roledescription="point" transform="translate(20,219.70852665721114)" d="M2.739,0A2.739,2.739,0,1,1,-2.739,0A2.739,2.739,0,1,1,2.739,0" fill="#e45756" stroke-width="2" opacity="1"/><path aria-label="Month: 2; Autocorrelation of temp_max: 0.777380891952; Lag: temp_lag_1d" role="graphics-symbol" aria-roledescription="point" transform="translate(60,62.33335025341062)" d="M2.739,0A2.739,2.739,0,1,1,-2.739,0A2.739,2.739,0,1,1,2.739,0" fill="#4c78a8" stroke-width="2" opacity="1"/><path aria-label="Month: 2; Autocorrelation of temp_max: 0.51113050212; Lag: temp_lag_3d" role="graphics-symbol" aria-roledescription="point" transform="translate(60,136.88345940635625)" d="M2.739,0A2.739,2.739,0,1,1,-2.739,0A2.739,2.739,0,1,1,2.739,0" fill="#f58518" stroke-width="2" opacity="1"/><path aria-label="Month: 2; Autocorrelation of temp_max: 0.121318072555; Lag: temp_lag_6d" role="graphics-symbol" aria-roledescription="point" transform="translate(60,246.030939684462)" d="M2.739,0A2.739,2.739,0,1,1,-2.739,0A2.739,2.739,0,1,1,2.739,0" fill="#e45756" stroke-width="2" opacity="1"/><path aria-label="Month: 3; Autocorrelation of temp_max: 0.665038772318; Lag: temp_lag_1d" role="graphics-symbol" aria-roledescription="point" transform="translate(100,93.78914375095418)" d="M2.739,0A2.739,2.739,0,1,1,-2.739,0A2.739,2.739,0,1,1,2.739,0" fill="#4c78a8" stroke-width="2" opacity="1"/><path aria-label="Month: 3; Autocorrelation of temp_max: 0.36605194443; Lag: temp_lag_3d" role="graphics-symbol" aria-roledescription="point" transform="translate(100,177.50545555946374)" d="M2.739,0A2.739,2.739,0,1,1,-2.739,0A2.739,2.739,0,1,1,2.739,0" fill="#f58518" stroke-width="2" opacity="1"/><path aria-label="Month: 3; Autocorrelation of temp_max: 0.351729926756; Lag: temp_lag_6d" role="graphics-symbol" aria-roledescription="point" transform="translate(100,181.51562050845962)" d="M2.739,0A2.739,2.739,0,1,1,-2.739,0A2.739,2.739,0,1,1,2.739,0" fill="#e45756" stroke-width="2" opacity="1"/><path aria-label="Month: 4; Autocorrelation of temp_max: 0.561594574821; Lag: temp_lag_1d" role="graphics-symbol" aria-roledescription="point" transform="translate(140,122.75351905017149)" d="M2.739,0A2.739,2.739,0,1,1,-2.739,0A2.739,2.739,0,1,1,2.739,0" fill="#4c78a8" stroke-width="2" opacity="1"/><path aria-label="Month: 4; Autocorrelation of temp_max: −0.0108623791904; Lag: temp_lag_3d" role="graphics-symbol" aria-roledescription="point" transform="translate(140,283.0414661733212)" d="M2.739,0A2.739,2.739,0,1,1,-2.739,0A2.739,2.739,0,1,1,2.739,0" fill="#f58518" stroke-width="2" opacity="1"/><path aria-label="Month: 4; Autocorrelation of temp_max: −0.0127104492119; Lag: temp_lag_6d" role="graphics-symbol" aria-roledescription="point" transform="translate(140,283.5589257793315)" d="M2.739,0A2.739,2.739,0,1,1,-2.739,0A2.739,2.739,0,1,1,2.739,0" fill="#e45756" stroke-width="2" opacity="1"/><path aria-label="Month: 5; Autocorrelation of temp_max: 0.683943284481; Lag: temp_lag_1d" role="graphics-symbol" aria-roledescription="point" transform="translate(180,88.49588034544355)" d="M2.739,0A2.739,2.739,0,1,1,-2.739,0A2.739,2.739,0,1,1,2.739,0" fill="#4c78a8" stroke-width="2" opacity="1"/><path aria-label="Month: 5; Autocorrelation of temp_max: 0.0622270900826; Lag: temp_lag_3d" role="graphics-symbol" aria-roledescription="point" transform="translate(180,262.57641477686514)" d="M2.739,0A2.739,2.739,0,1,1,-2.739,0A2.739,2.739,0,1,1,2.739,0" fill="#f58518" stroke-width="2" opacity="1"/><path aria-label="Month: 5; Autocorrelation of temp_max: 0.0450660322695; Lag: temp_lag_6d" role="graphics-symbol" aria-roledescription="point" transform="translate(180,267.381510964533)" d="M2.739,0A2.739,2.739,0,1,1,-2.739,0A2.739,2.739,0,1,1,2.739,0" fill="#e45756" stroke-width="2" opacity="1"/><path aria-label="Month: 6; Autocorrelation of temp_max: 0.735226006489; Lag: temp_lag_1d" role="graphics-symbol" aria-roledescription="point" transform="translate(220,74.13671818297554)" d="M2.739,0A2.739,2.739,0,1,1,-2.739,0A2.739,2.739,0,1,1,2.739,0" fill="#4c78a8" stroke-width="2" opacity="1"/><path aria-label="Month: 6; Autocorrelation of temp_max: 0.389705083083; Lag: temp_lag_3d" role="graphics-symbol" aria-roledescription="point" transform="translate(220,170.8825767366426)" d="M2.739,0A2.739,2.739,0,1,1,-2.739,0A2.739,2.739,0,1,1,2.739,0" fill="#f58518" stroke-width="2" opacity="1"/><path aria-label="Month: 6; Autocorrelation of temp_max: 0.298616621598; Lag: temp_lag_6d" role="graphics-symbol" aria-roledescription="point" transform="translate(220,196.3873459524308)" d="M2.739,0A2.739,2.739,0,1,1,-2.739,0A2.739,2.739,0,1,1,2.739,0" fill="#e45756" stroke-width="2" opacity="1"/><path aria-label="Month: 7; Autocorrelation of temp_max: 0.660562334339; Lag: temp_lag_1d" role="graphics-symbol" aria-roledescription="point" transform="translate(260,95.0425463851381)" d="M2.739,0A2.739,2.739,0,1,1,-2.739,0A2.739,2.739,0,1,1,2.739,0" fill="#4c78a8" stroke-width="2" opacity="1"/><path aria-label="Month: 7; Autocorrelation of temp_max: 0.276953084233; Lag: temp_lag_3d" role="graphics-symbol" aria-roledescription="point" transform="translate(260,202.45313641475698)" d="M2.739,0A2.739,2.739,0,1,1,-2.739,0A2.739,2.739,0,1,1,2.739,0" fill="#f58518" stroke-width="2" opacity="1"/><path aria-label="Month: 7; Autocorrelation of temp_max: 0.0815030899518; Lag: temp_lag_6d" role="graphics-symbol" aria-roledescription="point" transform="translate(260,257.1791348134921)" d="M2.739,0A2.739,2.739,0,1,1,-2.739,0A2.739,2.739,0,1,1,2.739,0" fill="#e45756" stroke-width="2" opacity="1"/><path aria-label="Month: 8; Autocorrelation of temp_max: 0.588877083538; Lag: temp_lag_1d" role="graphics-symbol" aria-roledescription="point" transform="translate(300,115.11441660949257)" d="M2.739,0A2.739,2.739,0,1,1,-2.739,0A2.739,2.739,0,1,1,2.739,0" fill="#4c78a8" stroke-width="2" opacity="1"/><path aria-label="Month: 8; Autocorrelation of temp_max: −0.0312411644126; Lag: temp_lag_3d" role="graphics-symbol" aria-roledescription="point" transform="translate(300,288.74752603552497)" d="M2.739,0A2.739,2.739,0,1,1,-2.739,0A2.739,2.739,0,1,1,2.739,0" fill="#f58518" stroke-width="2" opacity="1"/><path aria-label="Month: 8; Autocorrelation of temp_max: −0.0803488193478; Lag: temp_lag_6d" role="graphics-symbol" aria-roledescription="point" transform="translate(300,302.4976694173812)" d="M2.739,0A2.739,2.739,0,1,1,-2.739,0A2.739,2.739,0,1,1,2.739,0" fill="#e45756" stroke-width="2" opacity="1"/><path aria-label="Month: 9; Autocorrelation of temp_max: 0.693906707431; Lag: temp_lag_1d" role="graphics-symbol" aria-roledescription="point" transform="translate(340,85.70612191925898)" d="M2.739,0A2.739,2.739,0,1,1,-2.739,0A2.739,2.739,0,1,1,2.739,0" fill="#4c78a8" stroke-width="2" opacity="1"/><path aria-label="Month: 9; Autocorrelation of temp_max: 0.200348798354; Lag: temp_lag_3d" role="graphics-symbol" aria-roledescription="point" transform="translate(340,223.9023364608898)" d="M2.739,0A2.739,2.739,0,1,1,-2.739,0A2.739,2.739,0,1,1,2.739,0" fill="#f58518" stroke-width="2" opacity="1"/><path aria-label="Month: 9; Autocorrelation of temp_max: 0.0904637844257; Lag: temp_lag_6d" role="graphics-symbol" aria-roledescription="point" transform="translate(340,254.6701403608008)" d="M2.739,0A2.739,2.739,0,1,1,-2.739,0A2.739,2.739,0,1,1,2.739,0" fill="#e45756" stroke-width="2" opacity="1"/><path aria-label="Month: 10; Autocorrelation of temp_max: 0.712002558619; Lag: temp_lag_1d" role="graphics-symbol" aria-roledescription="point" transform="translate(380,80.63928358669297)" d="M2.739,0A2.739,2.739,0,1,1,-2.739,0A2.739,2.739,0,1,1,2.739,0" fill="#4c78a8" stroke-width="2" opacity="1"/><path aria-label="Month: 10; Autocorrelation of temp_max: 0.506181686951; Lag: temp_lag_3d" role="graphics-symbol" aria-roledescription="point" transform="translate(380,138.26912765373396)" d="M2.739,0A2.739,2.739,0,1,1,-2.739,0A2.739,2.739,0,1,1,2.739,0" fill="#f58518" stroke-width="2" opacity="1"/><path aria-label="Month: 10; Autocorrelation of temp_max: 0.443087804764; Lag: temp_lag_6d" role="graphics-symbol" aria-roledescription="point" transform="translate(380,155.9354146661655)" d="M2.739,0A2.739,2.739,0,1,1,-2.739,0A2.739,2.739,0,1,1,2.739,0" fill="#e45756" stroke-width="2" opacity="1"/><path aria-label="Month: 11; Autocorrelation of temp_max: 0.690427986805; Lag: temp_lag_1d" role="graphics-symbol" aria-roledescription="point" transform="translate(420,86.68016369446333)" d="M2.739,0A2.739,2.739,0,1,1,-2.739,0A2.739,2.739,0,1,1,2.739,0" fill="#4c78a8" stroke-width="2" opacity="1"/><path aria-label="Month: 11; Autocorrelation of temp_max: 0.291557658627; Lag: temp_lag_3d" role="graphics-symbol" aria-roledescription="point" transform="translate(420,198.36385558447267)" d="M2.739,0A2.739,2.739,0,1,1,-2.739,0A2.739,2.739,0,1,1,2.739,0" fill="#f58518" stroke-width="2" opacity="1"/><path aria-label="Month: 11; Autocorrelation of temp_max: 0.271911219374; Lag: temp_lag_6d" role="graphics-symbol" aria-roledescription="point" transform="translate(420,203.8648585752091)" d="M2.739,0A2.739,2.739,0,1,1,-2.739,0A2.739,2.739,0,1,1,2.739,0" fill="#e45756" stroke-width="2" opacity="1"/><path aria-label="Month: 12; Autocorrelation of temp_max: 0.777056475946; Lag: temp_lag_1d" role="graphics-symbol" aria-roledescription="point" transform="translate(460,62.424186735202966)" d="M2.739,0A2.739,2.739,0,1,1,-2.739,0A2.739,2.739,0,1,1,2.739,0" fill="#4c78a8" stroke-width="2" opacity="1"/><path aria-label="Month: 12; Autocorrelation of temp_max: 0.437749178403; Lag: temp_lag_3d" role="graphics-symbol" aria-roledescription="point" transform="translate(460,157.43023004711466)" d="M2.739,0A2.739,2.739,0,1,1,-2.739,0A2.739,2.739,0,1,1,2.739,0" fill="#f58518" stroke-width="2" opacity="1"/><path aria-label="Month: 12; Autocorrelation of temp_max: 0.113094849979; Lag: temp_lag_6d" role="graphics-symbol" aria-roledescription="point" transform="translate(460,248.3334420058923)" d="M2.739,0A2.739,2.739,0,1,1,-2.739,0A2.739,2.739,0,1,1,2.739,0" fill="#e45756" stroke-width="2" opacity="1"/></g><g class="mark-group role-legend" role="graphics-symbol" aria-roledescription="legend" aria-label="Symbol legend titled 'Lag' for fill color and stroke color with 3 values: temp_lag_1d, temp_lag_3d, temp_lag_6d"><g transform="translate(498,0)"><path class="background" aria-hidden="true" d="M0,0h50v61h-50Z" pointer-events="none"/><g><g class="mark-group role-legend-entry"><g transform="translate(0,16)"><path class="background" aria-hidden="true" d="M0,0h0v0h0Z" pointer-events="none"/><g><g class="mark-group role-scope" role="graphics-object" aria-roledescription="group mark container"><g transform="translate(0,0)"><path class="background" aria-hidden="true" d="M0,0h49.14453125v12.5h-49.14453125Z" pointer-events="none" opacity="1"/><g><g class="mark-symbol role-legend-symbol" pointer-events="none"><path transform="translate(6,6)" d="M5,0A5,5,0,1,1,-5,0A5,5,0,1,1,5,0" fill="#4c78a8" stroke="#4c78a8" stroke-width="1.5" opacity="1"/></g><g class="mark-text role-legend-label" pointer-events="none"><text text-anchor="start" transform="translate(16,9)" font-family="sans-serif" font-size="10px" fill="#000" opacity="1">1 day</text></g></g><path class="foreground" aria-hidden="true" d="" pointer-events="none" display="none"/></g><g transform="translate(0,16)"><path class="background" aria-hidden="true" d="M0,0h49.14453125v12.5h-49.14453125Z" pointer-events="none" opacity="1"/><g><g class="mark-symbol role-legend-symbol" pointer-events="none"><path transform="translate(6,6)" d="M5,0A5,5,0,1,1,-5,0A5,5,0,1,1,5,0" fill="#f58518" stroke="#f58518" stroke-width="1.5" opacity="1"/></g><g class="mark-text role-legend-label" pointer-events="none"><text text-anchor="start" transform="translate(16,9)" font-family="sans-serif" font-size="10px" fill="#000" opacity="1">3 days</text></g></g><path class="foreground" aria-hidden="true" d="" pointer-events="none" display="none"/></g><g transform="translate(0,32)"><path class="background" aria-hidden="true" d="M0,0h49.14453125v12.5h-49.14453125Z" pointer-events="none" opacity="1"/><g><g class="mark-symbol role-legend-symbol" pointer-events="none"><path transform="translate(6,6)" d="M5,0A5,5,0,1,1,-5,0A5,5,0,1,1,5,0" fill="#e45756" stroke="#e45756" stroke-width="1.5" opacity="1"/></g><g class="mark-text role-legend-label" pointer-events="none"><text text-anchor="start" transform="translate(16,9)" font-family="sans-serif" font-size="10px" fill="#000" opacity="1">6 days</text></g></g><path class="foreground" aria-hidden="true" d="" pointer-events="none" display="none"/></g></g></g><path class="foreground" aria-hidden="true" d="" pointer-events="none" display="none"/></g></g><g class="mark-text role-legend-title" pointer-events="none"><text text-anchor="start" transform="translate(0,9)" font-family="sans-serif" font-size="11px" font-weight="bold" fill="#000" opacity="1">Lag</text></g></g><path class="foreground" aria-hidden="true" d="" pointer-events="none" display="none"/></g></g></g><path class="foreground" aria-hidden="true" d="" display="none"/></g></g></g></svg>